<?xml version="1.0" encoding="UTF-8" standalone="no"?>
<svg
   xmlns:dc="http://purl.org/dc/elements/1.1/"
   xmlns:cc="http://creativecommons.org/ns#"
   xmlns:rdf="http://www.w3.org/1999/02/22-rdf-syntax-ns#"
   xmlns:svg="http://www.w3.org/2000/svg"
   xmlns="http://www.w3.org/2000/svg"
   xmlns:xlink="http://www.w3.org/1999/xlink"
   width="100%"
   height="100%"
   version="1.1"
   viewBox="0 0 58.208334 58.208537"
   id="kegcop-logo-root"
   style="enable-background:new">
  <style
     id="style901" />
  <defs
     id="defs38">
    <linearGradient
       id="linearGradient899">
      <stop
         style="stop-color:#ed424a;stop-opacity:1"
         offset="0"
         id="stop895" />
      <stop
         style="stop-color:#b22027;stop-opacity:1"
         offset="1"
         id="stop897" />
    </linearGradient>
    <linearGradient
       id="gradient-for-white-circle">
      <stop
         style="stop-color:#000000;stop-opacity:1;"
         offset="0"
         id="stop1413" />
      <stop
         style="stop-color:#000000;stop-opacity:0;"
         offset="1"
         id="stop1415" />
    </linearGradient>
    <linearGradient
       id="gradient-for-red-background">
      <stop
         style="stop-color:#000000;stop-opacity:1;"
         offset="0"
         id="stop1397" />
      <stop
         style="stop-color:#000000;stop-opacity:0;"
         offset="1"
         id="stop1399" />
    </linearGradient>
    <linearGradient
       id="gradient-for-grey-blue-background">
      <stop
         id="stop1079"
         offset="0"
         style="stop-color:#81819f;stop-opacity:1" />
      <stop
         id="stop1081"
         offset="1"
         style="stop-color:#373748;stop-opacity:1" />
    </linearGradient>
    <linearGradient
       id="red-background-gradient-2">
      <stop
         id="stop1068"
         offset="0"
         style="stop-color:#ed424a;stop-opacity:1" />
      <stop
         id="stop1070"
         offset="1"
         style="stop-color:#b22027;stop-opacity:1" />
    </linearGradient>
    <linearGradient
       gradientTransform="translate(-4.0088135e-6,-1.0196513e-6)"
       gradientUnits="userSpaceOnUse"
       y2="57.993153"
       x2="57.787621"
       y1="0.34706753"
       x1="0.19832517"
       id="linearGradient1074"
       xlink:href="#linearGradient899" />
    <linearGradient
       gradientTransform="matrix(1.3357991,0,0,1,-28.677782,-5.8207326)"
       gradientUnits="userSpaceOnUse"
       y2="86.12188"
       x2="104.77499"
       y1="-15.742706"
       x1="-22.225"
       id="linearGradient1085"
       xlink:href="#gradient-for-grey-blue-background" />
    <linearGradient
       xlink:href="#red-background-gradient-2"
       id="linearGradient1372"
       x1="-141.30153"
       y1="42.876823"
       x2="-116.59824"
       y2="69.397408"
       gradientUnits="userSpaceOnUse" />
    <linearGradient
       xlink:href="#gradient-for-red-background"
       id="linearGradient1403"
       x1="19.07605"
       y1="8.4301367"
       x2="85.380554"
       y2="74.734642"
       gradientUnits="userSpaceOnUse" />
    <linearGradient
       xlink:href="#gradient-for-white-circle"
       id="linearGradient1419"
       x1="11.307891"
       y1="6.9451132"
       x2="75.259949"
       y2="70.897171"
       gradientUnits="userSpaceOnUse" />
    <linearGradient
       xlink:href="#gradient-for-white-circle"
       id="linearGradient1427"
       x1="23.599871"
       y1="27.298708"
       x2="56.111301"
       y2="59.810139"
       gradientUnits="userSpaceOnUse" />
  </defs>
  <title
     id="title10">KegCop Logo</title>
  <metadata
     id="metadata12">
    <rdf:RDF>
      <cc:Work
         rdf:about="">
        <dc:format>image/svg+xml</dc:format>
        <dc:type
           rdf:resource="http://purl.org/dc/dcmitype/StillImage" />
        <dc:title>KegCop Logo</dc:title>
        <cc:license
           rdf:resource="http://creativecommons.org/licenses/by-sa/4.0/" />
        <dc:creator>
          <cc:Agent>
            <dc:title>Chris Jones</dc:title>
          </cc:Agent>
        </dc:creator>
      </cc:Work>
      <cc:License
         rdf:about="http://creativecommons.org/licenses/by-sa/4.0/">
        <cc:permits
           rdf:resource="http://creativecommons.org/ns#Reproduction" />
        <cc:permits
           rdf:resource="http://creativecommons.org/ns#Distribution" />
        <cc:requires
           rdf:resource="http://creativecommons.org/ns#Notice" />
        <cc:requires
           rdf:resource="http://creativecommons.org/ns#Attribution" />
        <cc:permits
           rdf:resource="http://creativecommons.org/ns#DerivativeWorks" />
        <cc:requires
           rdf:resource="http://creativecommons.org/ns#ShareAlike" />
      </cc:License>
    </rdf:RDF>
  </metadata>
  <g
     id="layer3"
     style="display:none">
    <rect
       y="-21.431149"
       x="-58.012497"
       height="102.39375"
       width="170"
       id="grey-blue-background"
       style="display:inline;opacity:1;fill:url(#linearGradient1085);fill-opacity:1;stroke:none;stroke-width:0;stroke-opacity:1;enable-background:new" />
    <path
       id="shadow_of_red_background"
       d="M 56.69006,4.4386153 2.6194783,54.846974 28.203964,80.162499 H 111.98748 V 58.656913 Z"
       style="display:inline;opacity:0.2;fill:url(#linearGradient1403);fill-opacity:1;fill-rule:evenodd;stroke:#000000;stroke-width:0.263189px;stroke-linecap:butt;stroke-linejoin:miter;stroke-opacity:0;enable-background:new" />
  </g>
  <g
     style="display:inline;opacity:1"
     id="layer1-top-most-layer">
    <path
       style="display:inline;opacity:1;fill:url(#linearGradient1074);fill-opacity:1;stroke:none;stroke-width:0;stroke-miterlimit:4;stroke-dasharray:none;stroke-opacity:1;enable-background:new"
       id="red-background"
       d="M 10.583326,-7.3962596e-7 H 47.712755 C 54.239576,-7.3962596e-7 58.208329,3.9687492 58.208329,10.495574 v 37.194914 c 0,6.549094 -3.968753,10.517859 -10.686812,10.517889 l -36.812441,1.58e-4 C 3.9687456,58.208535 -4.3388135e-6,54.239582 -4.3388135e-6,47.594873 V 10.583332 C -4.3388135e-6,3.9687503 3.9687456,-7.3962596e-7 10.583326,-7.3962596e-7 Z" />
    <path
       id="shadow-of-white-circle"
       d="M 45.354724,11.730123 11.947751,45.604348 24.64218,58.208333 h 23.214388 c 6.507513,-2.9e-5 10.351765,-3.898002 10.351765,-10.330578 V 24.763512 Z"
       style="display:inline;opacity:0.2;fill:url(#linearGradient1419);fill-opacity:1;fill-rule:evenodd;stroke:none;stroke-width:0.258077px;stroke-linecap:butt;stroke-linejoin:miter;stroke-opacity:1" />
    <circle
       style="display:inline;opacity:1;fill:#fcf9f9;fill-opacity:1;stroke:none;stroke-width:0;stroke-opacity:1;enable-background:new"
       id="white-circle"
       cx="29.104162"
       cy="29.104269"
       r="23.8125" />
    <path
       id="shadow-of-red-shield"
       d="M 39.828471,18.334838 18.579744,35.709555 35.140994,52.165808 A 23.702283,23.55201 0 0 0 52.921306,31.344666 Z"
       style="display:inline;opacity:0.0732484;fill:url(#linearGradient1427);fill-opacity:1;fill-rule:evenodd;stroke:none;stroke-width:0.262523px;stroke-linecap:butt;stroke-linejoin:miter;stroke-opacity:1" />
    <g
       style="display:inline;fill:url(#linearGradient1372);fill-opacity:1;enable-background:new"
       id="red-shield"
       transform="translate(157.57476,-27.512132)">
      <path
         style="display:inline;fill:url(#linearGradient1372);fill-opacity:1;fill-rule:evenodd"
         id="red-shield-path"
         d="m -130.8,67.011 c -1.2724,0.14742 -2.723,-0.4107 -3.2411,-1.6536 -1.9518,0.29385 -3.7031,-1.0007 -5.0646,-2.2462 -1.4642,-1.44 -2.0899,-3.8346 -1.0189,-5.6823 0.8865,-1.8554 2.0569,-3.7191 1.933,-5.8616 0.0642,-1.7459 -0.0282,-3.8984 -1.6509,-4.96 0.80934,-0.9599 1.6187,-1.9198 2.428,-2.8797 1.5066,0.87726 2.9637,2.198 4.7998,2.2011 1.5916,-0.18898 2.8816,-1.2512 4.2272,-2.0297 1.5874,0.74681 3.1775,1.9545 5.0234,1.7399 1.418,-0.29681 2.5978,-1.1992 3.8287,-1.9112 0.80934,0.9599 1.6187,1.9198 2.428,2.8797 -1.7396,1.1557 -1.7175,3.4888 -1.6366,5.3482 -0.0612,2.5035 1.7553,4.4642 2.3898,6.7736 0.43672,2.2781 -1.0839,4.4202 -2.9526,5.5655 -1.0475,0.69758 -2.3117,1.3024 -3.602,1.0627 -0.5181,1.2429 -1.9688,1.8011 -3.2411,1.6536 -0.74583,0.83139 -1.4917,1.6628 -2.2375,2.4942 -0.80412,-0.83139 -1.6082,-1.6628 -2.4124,-2.4942 z" />
    </g>
    <g
       style="display:inline;enable-background:new"
       id="group-kegcop-text"
       transform="rotate(-90,-62.314107,-36.350365)">
      <path
         transform="rotate(90,5.5816913e-7,4.905229e-7)"
         id="K"
         style="font-weight:bold;font-size:5.04472px;line-height:125%;font-family:Arial;font-variant-ligatures:normal;font-variant-caps:normal;font-variant-numeric:normal;font-feature-settings:normal;letter-spacing:0px;word-spacing:0px;display:inline;opacity:1;fill:#ffffff;fill-opacity:1;stroke-width:0.2284px;enable-background:new"
         d="m 44.437782,129.5743 v -3.61112 h 0.729119 v 1.60357 l 1.473019,-1.60357 h 0.980371 l -1.35971,1.40651 1.433607,2.20461 h -0.943422 l -0.992687,-1.69472 -0.591178,0.6035 v 1.09122 z" />
      <path
         transform="rotate(90,5.5816913e-7,4.905229e-7)"
         id="E"
         style="font-weight:bold;font-size:5.04472px;line-height:125%;font-family:Arial;font-variant-ligatures:normal;font-variant-caps:normal;font-variant-numeric:normal;font-feature-settings:normal;letter-spacing:0px;word-spacing:0px;display:inline;opacity:1;fill:#ffffff;fill-opacity:1;stroke-width:0.2284px;enable-background:new"
         d="m 48.073527,129.5743 v -3.61112 h 2.677545 v 0.61089 h -1.948425 v 0.80055 h 1.812946 v 0.60842 h -1.812946 v 0.98283 h 2.017395 v 0.60843 z" />
      <path
         transform="rotate(90,5.5816913e-7,4.905229e-7)"
         id="G"
         style="font-weight:bold;font-size:5.04472px;line-height:125%;font-family:Arial;font-variant-ligatures:normal;font-variant-caps:normal;font-variant-numeric:normal;font-feature-settings:normal;letter-spacing:0px;word-spacing:0px;display:inline;opacity:1;fill:#ffffff;fill-opacity:1;stroke-width:0.2284px;enable-background:new"
         d="m 53.123174,128.24661 v -0.60842 h 1.571548 v 1.43853 q -0.229081,0.22169 -0.665075,0.39166 -0.433531,0.1675 -0.879377,0.1675 -0.566546,0 -0.987761,-0.23648 -0.421214,-0.23893 -0.633053,-0.67985 -0.211839,-0.44338 -0.211839,-0.96313 0,-0.56408 0.236472,-1.00254 0.236471,-0.43845 0.692171,-0.67246 0.347317,-0.17982 0.864598,-0.17982 0.672465,0 1.049341,0.28327 0.379339,0.28081 0.487722,0.77839 l -0.724193,0.13548 q -0.07636,-0.26603 -0.2882,-0.41875 -0.209375,-0.15519 -0.52467,-0.15519 -0.477869,0 -0.761142,0.30298 -0.28081,0.30298 -0.28081,0.89908 0,0.64291 0.285736,0.96559 0.285736,0.32023 0.748826,0.32023 0.229081,0 0.458163,-0.0887 0.231545,-0.0911 0.396582,-0.21923 v -0.45816 z" />
      <path
         transform="rotate(90,5.5816913e-7,4.905229e-7)"
         id="C"
         style="font-weight:bold;font-size:5.04472px;line-height:125%;font-family:Arial;font-variant-ligatures:normal;font-variant-caps:normal;font-variant-numeric:normal;font-feature-settings:normal;letter-spacing:0px;word-spacing:0px;display:inline;opacity:1;fill:#ffffff;fill-opacity:1;stroke-width:0.2284px;enable-background:new"
         d="m 57.675246,128.24661 0.706951,0.22415 q -0.162574,0.59118 -0.541914,0.87938 -0.376876,0.28574 -0.958201,0.28574 -0.719267,0 -1.182356,-0.49019 -0.46309,-0.49265 -0.46309,-1.34493 0,-0.90155 0.465553,-1.39912 0.465553,-0.50004 1.224231,-0.50004 0.662613,0 1.076437,0.39166 0.246324,0.23154 0.369487,0.66507 l -0.72173,0.17243 q -0.06405,-0.28081 -0.268494,-0.44338 -0.201986,-0.16258 -0.492648,-0.16258 -0.401509,0 -0.652759,0.2882 -0.248788,0.2882 -0.248788,0.93357 0,0.68478 0.246324,0.97544 0.246324,0.29067 0.640443,0.29067 0.290663,0 0.500038,-0.18475 0.209376,-0.18474 0.300516,-0.58132 z" />
      <path
         transform="rotate(90,5.5816913e-7,4.905229e-7)"
         id="O"
         style="font-weight:bold;font-size:5.04472px;line-height:125%;font-family:Arial;font-variant-ligatures:normal;font-variant-caps:normal;font-variant-numeric:normal;font-feature-settings:normal;letter-spacing:0px;word-spacing:0px;display:inline;opacity:1;fill:#ffffff;fill-opacity:1;stroke-width:0.2284px;enable-background:new"
         d="m 58.862529,127.79091 q 0,-0.55177 0.165037,-0.92618 0.123162,-0.27588 0.335001,-0.49511 0.214302,-0.21923 0.468016,-0.32515 0.337464,-0.14287 0.778384,-0.14287 0.798091,0 1.27596,0.49511 0.480332,0.49511 0.480332,1.37695 0,0.87446 -0.475406,1.36957 -0.475405,0.49265 -1.271033,0.49265 -0.80548,0 -1.280886,-0.49019 -0.475405,-0.49265 -0.475405,-1.35478 z m 0.751289,-0.0246 q 0,0.61334 0.283272,0.9311 0.283273,0.3153 0.719267,0.3153 0.435994,0 0.71434,-0.31284 0.28081,-0.31529 0.28081,-0.94342 0,-0.62073 -0.27342,-0.92618 -0.270957,-0.30544 -0.72173,-0.30544 -0.450773,0 -0.726656,0.31037 -0.275883,0.3079 -0.275883,0.93111 z" />
      <path
         transform="rotate(90,5.5816913e-7,4.905229e-7)"
         id="P"
         style="font-weight:bold;font-size:5.04472px;line-height:125%;font-family:Arial;font-variant-ligatures:normal;font-variant-caps:normal;font-variant-numeric:normal;font-feature-settings:normal;letter-spacing:0px;word-spacing:0px;display:inline;opacity:1;fill:#ffffff;fill-opacity:1;stroke-width:0.2284px;enable-background:new"
         d="m 62.931804,129.5743 v -3.61112 h 1.17004 q 0.665076,0 0.867062,0.0542 0.310368,0.0813 0.519744,0.35471 0.209375,0.27096 0.209375,0.70202 0,0.33254 -0.120699,0.55916 -0.120698,0.22662 -0.307905,0.35717 -0.184743,0.12809 -0.376876,0.16996 -0.261104,0.0517 -0.756215,0.0517 h -0.475406 v 1.36218 z m 0.72912,-3.00023 v 1.0247 h 0.399045 q 0.431068,0 0.576399,-0.0567 0.145331,-0.0566 0.226618,-0.17735 0.08375,-0.1207 0.08375,-0.28081 0,-0.19706 -0.115772,-0.32515 -0.115772,-0.12809 -0.293126,-0.16011 -0.130552,-0.0246 -0.52467,-0.0246 z" />
    </g>
  </g>
</svg>
