<?xml version="1.0" encoding="UTF-8" standalone="no"?>
<svg
   xmlns:dc="http://purl.org/dc/elements/1.1/"
   xmlns:cc="http://creativecommons.org/ns#"
   xmlns:rdf="http://www.w3.org/1999/02/22-rdf-syntax-ns#"
   xmlns:svg="http://www.w3.org/2000/svg"
   xmlns="http://www.w3.org/2000/svg"
   xmlns:xlink="http://www.w3.org/1999/xlink"
   xmlns:sodipodi="http://sodipodi.sourceforge.net/DTD/sodipodi-0.dtd"
   xmlns:inkscape="http://www.inkscape.org/namespaces/inkscape"
   style="enable-background:new"
   inkscape:version="1.0alpha (aaab63a922, 2019-03-03)"
   sodipodi:docname="kegcop-logo-neo-05.svg"
   id="kegcop-logo-root"
   viewBox="0 0 58.208338 58.208533"
   version="1.1"
   height="220.00076"
   width="220.00002">
  <style
     id="style901"></style>
  <defs
     id="defs38">
    <linearGradient
       id="gradient-for-white-circle"
       inkscape:collect="always">
      <stop
         id="stop1413"
         offset="0"
         style="stop-color:#000000;stop-opacity:1;" />
      <stop
         id="stop1415"
         offset="1"
         style="stop-color:#000000;stop-opacity:0;" />
    </linearGradient>
    <linearGradient
       inkscape:collect="always"
       id="red-background-gradient-2">
      <stop
         style="stop-color:#ed424a;stop-opacity:1"
         offset="0"
         id="stop1068" />
      <stop
         style="stop-color:#b22027;stop-opacity:1"
         offset="1"
         id="stop1070" />
    </linearGradient>
    <linearGradient
       inkscape:collect="always"
       xlink:href="#red-background-gradient-2"
       id="linearGradient1074"
       x1="0.19832517"
       y1="0.34706753"
       x2="57.787621"
       y2="57.993153"
       gradientUnits="userSpaceOnUse"
       gradientTransform="translate(-4.0088135e-6,-1.0196513e-6)" />
    <linearGradient
       gradientUnits="userSpaceOnUse"
       y2="69.397408"
       x2="-116.59824"
       y1="42.876823"
       x1="-141.30153"
       id="linearGradient1372"
       xlink:href="#red-background-gradient-2"
       inkscape:collect="always" />
    <linearGradient
       gradientUnits="userSpaceOnUse"
       y2="70.897171"
       x2="75.259949"
       y1="6.9451132"
       x1="11.307891"
       id="linearGradient1419"
       xlink:href="#gradient-for-white-circle"
       inkscape:collect="always" />
    <linearGradient
       gradientUnits="userSpaceOnUse"
       y2="59.810139"
       x2="56.111301"
       y1="27.298708"
       x1="23.599871"
       id="linearGradient1427"
       xlink:href="#gradient-for-white-circle"
       inkscape:collect="always" />
    <linearGradient
       y2="69.397408"
       x2="-116.59824"
       y1="42.876823"
       x1="-141.30153"
       gradientUnits="userSpaceOnUse"
       id="linearGradient1449"
       xlink:href="#red-background-gradient-2"
       inkscape:collect="always" />
  </defs>
  <sodipodi:namedview
     inkscape:document-rotation="0"
     fit-margin-bottom="0"
     fit-margin-right="0"
     fit-margin-left="0"
     fit-margin-top="0"
     inkscape:showpageshadow="false"
     showborder="true"
     borderlayer="true"
     inkscape:pagecheckerboard="false"
     inkscape:guide-bbox="true"
     inkscape:snap-grids="true"
     showguides="false"
     inkscape:current-layer="layer1-top-most-layer"
     inkscape:window-maximized="0"
     inkscape:window-y="37"
     inkscape:window-x="150"
     inkscape:cy="110.00038"
     inkscape:cx="110.00001"
     inkscape:zoom="2.6408999"
     showgrid="false"
     id="namedview36"
     inkscape:window-height="841"
     inkscape:window-width="1290"
     inkscape:pageshadow="2"
     inkscape:pageopacity="0"
     guidetolerance="10"
     gridtolerance="10"
     objecttolerance="10"
     borderopacity="1"
     bordercolor="#666666"
     pagecolor="#ffffff"
     inkscape:snap-global="true"
     inkscape:object-nodes="true"
     inkscape:snap-others="true"
     inkscape:snap-bbox="true"
     inkscape:snap-to-guides="true"
     inkscape:object-paths="true"
     inkscape:snap-nodes="true"
     inkscape:snap-intersection-paths="true"
     inkscape:snap-smooth-nodes="true"
     inkscape:snap-midpoints="true"
     inkscape:snap-object-midpoints="true"
     inkscape:snap-center="true">
    <inkscape:grid
       originy="0.00020523961"
       originx="4.3388136e-06"
       enabled="true"
       dotted="false"
       id="grid902"
       type="xygrid" />
    <sodipodi:guide
       position="57.623315,53.344227"
       orientation="-0.70710678,-0.70710678"
       id="guide1093" />
    <sodipodi:guide
       position="2.6192457,2.8302883"
       orientation="-0.70710678,-0.70710678"
       id="guide1095" />
    <sodipodi:guide
       position="53.881541,38.377134"
       orientation="-0.70710678,-0.70710678"
       id="guide1099" />
    <sodipodi:guide
       position="34.050142,-9.8917408"
       orientation="-0.70710678,-0.70710678"
       id="guide1103" />
    <sodipodi:guide
       position="39.662802,40.24802"
       orientation="-0.70710678,-0.70710678"
       id="guide1105" />
    <sodipodi:guide
       position="26.566595,14.429785"
       orientation="-0.70710678,-0.70710678"
       id="guide1107" />
    <sodipodi:guide
       position="39.760905,30.290031"
       orientation="-0.70710678,-0.70710678"
       id="guide1109" />
    <sodipodi:guide
       position="18.075071,27.396192"
       orientation="-0.70710678,-0.70710678"
       id="guide1111" />
    <sodipodi:guide
       position="38.695317,27.715304"
       orientation="-0.70710678,-0.70710678"
       id="guide1329" />
    <sodipodi:guide
       position="33.668234,28.972075"
       orientation="-0.70710678,-0.70710678"
       id="guide1331" />
    <sodipodi:guide
       position="28.41623,30.480515"
       orientation="-0.70710678,-0.70710678"
       id="guide1335" />
    <sodipodi:guide
       position="29.137244,26.590825"
       orientation="-0.70710678,-0.70710678"
       id="guide1339" />
    <sodipodi:guide
       position="27.086723,25.499419"
       orientation="-0.70710678,-0.70710678"
       id="guide1341" />
    <sodipodi:guide
       id="guide1104"
       orientation="-0.70710678,-0.70710678"
       position="19.236412,30.929081" />
    <sodipodi:guide
       id="guide1106"
       orientation="-0.70710678,-0.70710678"
       position="38.263132,29.69092" />
  </sodipodi:namedview>
  <title
     id="title10">KegCop Logo</title>
  <metadata
     id="metadata12">
    <rdf:RDF>
      <cc:Work
         rdf:about="">
        <dc:format>image/svg+xml</dc:format>
        <dc:type
           rdf:resource="http://purl.org/dc/dcmitype/StillImage" />
        <dc:title>KegCop Logo</dc:title>
        <cc:license
           rdf:resource="http://creativecommons.org/licenses/by-sa/4.0/" />
        <dc:creator>
          <cc:Agent>
            <dc:title>Chris Jones</dc:title>
          </cc:Agent>
        </dc:creator>
      </cc:Work>
      <cc:License
         rdf:about="http://creativecommons.org/licenses/by-sa/4.0/">
        <cc:permits
           rdf:resource="http://creativecommons.org/ns#Reproduction" />
        <cc:permits
           rdf:resource="http://creativecommons.org/ns#Distribution" />
        <cc:requires
           rdf:resource="http://creativecommons.org/ns#Notice" />
        <cc:requires
           rdf:resource="http://creativecommons.org/ns#Attribution" />
        <cc:permits
           rdf:resource="http://creativecommons.org/ns#DerivativeWorks" />
        <cc:requires
           rdf:resource="http://creativecommons.org/ns#ShareAlike" />
      </cc:License>
    </rdf:RDF>
  </metadata>
  <g
     transform="translate(4.3388135e-6)"
     inkscape:groupmode="layer"
     id="layer1-top-most-layer"
     inkscape:label="kegcop-logo-long-shadow-exp"
     style="display:inline;opacity:1">
    <path
       d="M 10.583326,-7.3962596e-7 H 47.712755 C 54.239576,-7.3962596e-7 58.208329,3.9687492 58.208329,10.495574 v 37.194914 c 0,6.549094 -3.968753,10.517859 -10.686812,10.517889 l -36.812441,1.58e-4 C 3.9687456,58.208535 -4.3388135e-6,54.239582 -4.3388135e-6,47.594873 V 10.583332 C -4.3388135e-6,3.9687503 3.9687456,-7.3962596e-7 10.583326,-7.3962596e-7 Z"
       id="red-background"
       inkscape:connector-curvature="0"
       style="display:inline;opacity:1;fill:url(#linearGradient1074);fill-opacity:1;stroke:none;stroke-width:0;stroke-miterlimit:4;stroke-dasharray:none;stroke-opacity:1;enable-background:new"
       sodipodi:nodetypes="ccccccccc" />
    <path
       style="opacity:0.2;fill:url(#linearGradient1419);fill-opacity:1;fill-rule:evenodd;stroke:none;stroke-width:0.258077px;stroke-linecap:butt;stroke-linejoin:miter;stroke-opacity:1"
       d="M 45.354724,11.730123 11.947751,45.604348 24.64218,58.208333 h 23.214388 c 6.507513,-2.9e-5 10.351765,-3.898002 10.351765,-10.330578 V 24.763512 Z"
       id="shadow-of-white-circle"
       inkscape:connector-curvature="0" />
    <circle
       r="23.8125"
       cy="29.104269"
       cx="29.104162"
       id="white-circle"
       style="display:inline;opacity:1;fill:#fcf9f9;fill-opacity:1;stroke:none;stroke-width:0;stroke-opacity:1;enable-background:new" />
    <path
       style="opacity:0.0732484;fill:url(#linearGradient1427);fill-opacity:1;fill-rule:evenodd;stroke:none;stroke-width:0.262523px;stroke-linecap:butt;stroke-linejoin:miter;stroke-opacity:1"
       d="M 39.828471,18.334838 18.579744,35.709555 35.140994,52.165808 A 23.702283,23.55201 0 0 0 52.921306,31.344666 Z"
       id="shadow-of-red-shield"
       inkscape:connector-curvature="0" />
    <g
       transform="translate(157.57476,-27.512132)"
       id="red-shield"
       style="display:inline;fill:url(#linearGradient1372);fill-opacity:1;enable-background:new">
      <path
         d="m -130.8,67.011 c -1.2724,0.14742 -2.723,-0.4107 -3.2411,-1.6536 -1.9518,0.29385 -3.7031,-1.0007 -5.0646,-2.2462 -1.4642,-1.44 -2.0899,-3.8346 -1.0189,-5.6823 0.8865,-1.8554 2.0569,-3.7191 1.933,-5.8616 0.0642,-1.7459 -0.0282,-3.8984 -1.6509,-4.96 0.80934,-0.9599 1.6187,-1.9198 2.428,-2.8797 1.5066,0.87726 2.9637,2.198 4.7998,2.2011 1.5916,-0.18898 2.8816,-1.2512 4.2272,-2.0297 1.5874,0.74681 3.1775,1.9545 5.0234,1.7399 1.418,-0.29681 2.5978,-1.1992 3.8287,-1.9112 0.80934,0.9599 1.6187,1.9198 2.428,2.8797 -1.7396,1.1557 -1.7175,3.4888 -1.6366,5.3482 -0.0612,2.5035 1.7553,4.4642 2.3898,6.7736 0.43672,2.2781 -1.0839,4.4202 -2.9526,5.5655 -1.0475,0.69758 -2.3117,1.3024 -3.602,1.0627 -0.5181,1.2429 -1.9688,1.8011 -3.2411,1.6536 -0.74583,0.83139 -1.4917,1.6628 -2.2375,2.4942 -0.80412,-0.83139 -1.6082,-1.6628 -2.4124,-2.4942 z"
         id="red-shield-path"
         inkscape:connector-curvature="0"
         style="fill:url(#linearGradient1449);fill-opacity:1;fill-rule:evenodd" />
    </g>
    <g
       transform="rotate(-90,-62.314107,-36.350365)"
       id="group-kegcop-text"
       style="display:inline;enable-background:new">
      <g
         id="text30-3-6-3"
         aria-label="KEGCOP"
         transform="rotate(90)"
         style="font-size:9.1359px;line-height:125%;font-family:sans-serif;font-variant-ligatures:normal;font-variant-caps:normal;font-variant-numeric:normal;font-feature-settings:normal;letter-spacing:0px;word-spacing:0px;fill:#ffffff;stroke-width:0.2284px">
        <path
           inkscape:connector-curvature="0"
           d="m 44.437782,129.5743 v -3.61112 h 0.729119 v 1.60357 l 1.473019,-1.60357 h 0.980371 l -1.35971,1.40651 1.433607,2.20461 h -0.943422 l -0.992687,-1.69472 -0.591178,0.6035 v 1.09122 z"
           style="font-weight:bold;font-size:5.04472px;font-family:Arial;font-variant-ligatures:normal;font-variant-caps:normal;font-variant-numeric:normal;font-feature-settings:normal;fill:#ffffff;fill-opacity:1;stroke-width:0.2284px"
           id="K" />
        <path
           inkscape:connector-curvature="0"
           d="m 48.073527,129.5743 v -3.61112 h 2.677545 v 0.61089 h -1.948425 v 0.80055 h 1.812946 v 0.60842 h -1.812946 v 0.98283 h 2.017395 v 0.60843 z"
           style="font-weight:bold;font-size:5.04472px;font-family:Arial;font-variant-ligatures:normal;font-variant-caps:normal;font-variant-numeric:normal;font-feature-settings:normal;fill:#ffffff;fill-opacity:1;stroke-width:0.2284px"
           id="E" />
        <path
           inkscape:connector-curvature="0"
           d="m 53.123174,128.24661 v -0.60842 h 1.571548 v 1.43853 q -0.229081,0.22169 -0.665075,0.39166 -0.433531,0.1675 -0.879377,0.1675 -0.566546,0 -0.987761,-0.23648 -0.421214,-0.23893 -0.633053,-0.67985 -0.211839,-0.44338 -0.211839,-0.96313 0,-0.56408 0.236472,-1.00254 0.236471,-0.43845 0.692171,-0.67246 0.347317,-0.17982 0.864598,-0.17982 0.672465,0 1.049341,0.28327 0.379339,0.28081 0.487722,0.77839 l -0.724193,0.13548 q -0.07636,-0.26603 -0.2882,-0.41875 -0.209375,-0.15519 -0.52467,-0.15519 -0.477869,0 -0.761142,0.30298 -0.28081,0.30298 -0.28081,0.89908 0,0.64291 0.285736,0.96559 0.285736,0.32023 0.748826,0.32023 0.229081,0 0.458163,-0.0887 0.231545,-0.0911 0.396582,-0.21923 v -0.45816 z"
           style="font-weight:bold;font-size:5.04472px;font-family:Arial;font-variant-ligatures:normal;font-variant-caps:normal;font-variant-numeric:normal;font-feature-settings:normal;fill:#ffffff;fill-opacity:1;stroke-width:0.2284px"
           id="G" />
        <path
           inkscape:connector-curvature="0"
           d="m 57.675246,128.24661 0.706951,0.22415 q -0.162574,0.59118 -0.541914,0.87938 -0.376876,0.28574 -0.958201,0.28574 -0.719267,0 -1.182356,-0.49019 -0.46309,-0.49265 -0.46309,-1.34493 0,-0.90155 0.465553,-1.39912 0.465553,-0.50004 1.224231,-0.50004 0.662613,0 1.076437,0.39166 0.246324,0.23154 0.369487,0.66507 l -0.72173,0.17243 q -0.06405,-0.28081 -0.268494,-0.44338 -0.201986,-0.16258 -0.492648,-0.16258 -0.401509,0 -0.652759,0.2882 -0.248788,0.2882 -0.248788,0.93357 0,0.68478 0.246324,0.97544 0.246324,0.29067 0.640443,0.29067 0.290663,0 0.500038,-0.18475 0.209376,-0.18474 0.300516,-0.58132 z"
           style="font-weight:bold;font-size:5.04472px;font-family:Arial;font-variant-ligatures:normal;font-variant-caps:normal;font-variant-numeric:normal;font-feature-settings:normal;fill:#ffffff;fill-opacity:1;stroke-width:0.2284px"
           id="C" />
        <path
           inkscape:connector-curvature="0"
           d="m 58.862529,127.79091 q 0,-0.55177 0.165037,-0.92618 0.123162,-0.27588 0.335001,-0.49511 0.214302,-0.21923 0.468016,-0.32515 0.337464,-0.14287 0.778384,-0.14287 0.798091,0 1.27596,0.49511 0.480332,0.49511 0.480332,1.37695 0,0.87446 -0.475406,1.36957 -0.475405,0.49265 -1.271033,0.49265 -0.80548,0 -1.280886,-0.49019 -0.475405,-0.49265 -0.475405,-1.35478 z m 0.751289,-0.0246 q 0,0.61334 0.283272,0.9311 0.283273,0.3153 0.719267,0.3153 0.435994,0 0.71434,-0.31284 0.28081,-0.31529 0.28081,-0.94342 0,-0.62073 -0.27342,-0.92618 -0.270957,-0.30544 -0.72173,-0.30544 -0.450773,0 -0.726656,0.31037 -0.275883,0.3079 -0.275883,0.93111 z"
           style="font-weight:bold;font-size:5.04472px;font-family:Arial;font-variant-ligatures:normal;font-variant-caps:normal;font-variant-numeric:normal;font-feature-settings:normal;fill:#ffffff;fill-opacity:1;stroke-width:0.2284px"
           id="O" />
        <path
           inkscape:connector-curvature="0"
           d="m 62.931804,129.5743 v -3.61112 h 1.17004 q 0.665076,0 0.867062,0.0542 0.310368,0.0813 0.519744,0.35471 0.209375,0.27096 0.209375,0.70202 0,0.33254 -0.120699,0.55916 -0.120698,0.22662 -0.307905,0.35717 -0.184743,0.12809 -0.376876,0.16996 -0.261104,0.0517 -0.756215,0.0517 h -0.475406 v 1.36218 z m 0.72912,-3.00023 v 1.0247 h 0.399045 q 0.431068,0 0.576399,-0.0567 0.145331,-0.0566 0.226618,-0.17735 0.08375,-0.1207 0.08375,-0.28081 0,-0.19706 -0.115772,-0.32515 -0.115772,-0.12809 -0.293126,-0.16011 -0.130552,-0.0246 -0.52467,-0.0246 z"
           style="font-weight:bold;font-size:5.04472px;font-family:Arial;font-variant-ligatures:normal;font-variant-caps:normal;font-variant-numeric:normal;font-feature-settings:normal;fill:#ffffff;fill-opacity:1;stroke-width:0.2284px"
           id="P" />
      </g>
    </g>
  </g>
</svg>
