<?xml version="1.0" encoding="UTF-8" standalone="no"?>
<svg
   xmlns:dc="http://purl.org/dc/elements/1.1/"
   xmlns:cc="http://creativecommons.org/ns#"
   xmlns:rdf="http://www.w3.org/1999/02/22-rdf-syntax-ns#"
   xmlns:svg="http://www.w3.org/2000/svg"
   xmlns="http://www.w3.org/2000/svg"
   xmlns:xlink="http://www.w3.org/1999/xlink"
   xmlns:sodipodi="http://sodipodi.sourceforge.net/DTD/sodipodi-0.dtd"
   xmlns:inkscape="http://www.inkscape.org/namespaces/inkscape"
   style="enable-background:new"
   inkscape:version="1.0alpha (aaab63a922, 2019-03-03)"
   sodipodi:docname="kegcop-logo-neo-neo-03.svg"
   id="kegcop-logo-root"
   viewBox="0 0 58.208338 58.208533"
   version="1.1"
   height="220.00076"
   width="220.00002">
  <style
     id="style901"></style>
  <defs
     id="defs38">
    <linearGradient
       id="gradient-for-white-circle"
       inkscape:collect="always">
      <stop
         id="stop1413"
         offset="0"
         style="stop-color:#000000;stop-opacity:1;" />
      <stop
         id="stop1415"
         offset="1"
         style="stop-color:#000000;stop-opacity:0;" />
    </linearGradient>
    <linearGradient
       inkscape:collect="always"
       id="red-background-gradient-2">
      <stop
         style="stop-color:#ed424a;stop-opacity:1"
         offset="0"
         id="stop1068" />
      <stop
         style="stop-color:#b22027;stop-opacity:1"
         offset="1"
         id="stop1070" />
    </linearGradient>
    <linearGradient
       inkscape:collect="always"
       xlink:href="#red-background-gradient-2"
       id="linearGradient1074"
       x1="0.19832517"
       y1="0.34706753"
       x2="57.787621"
       y2="57.993153"
       gradientUnits="userSpaceOnUse"
       gradientTransform="translate(-4.0088135e-6,-1.0196513e-6)" />
    <linearGradient
       gradientUnits="userSpaceOnUse"
       y2="69.397408"
       x2="-116.59824"
       y1="42.876823"
       x1="-141.30153"
       id="linearGradient1372"
       xlink:href="#red-background-gradient-2"
       inkscape:collect="always" />
    <linearGradient
       gradientUnits="userSpaceOnUse"
       y2="70.897171"
       x2="75.259949"
       y1="6.9451132"
       x1="11.307891"
       id="linearGradient1419"
       xlink:href="#gradient-for-white-circle"
       inkscape:collect="always" />
    <linearGradient
       gradientUnits="userSpaceOnUse"
       y2="59.810139"
       x2="56.111301"
       y1="27.298708"
       x1="23.599871"
       id="linearGradient1427"
       xlink:href="#gradient-for-white-circle"
       inkscape:collect="always" />
    <linearGradient
       y2="69.397408"
       x2="-116.59824"
       y1="42.876823"
       x1="-141.30153"
       gradientUnits="userSpaceOnUse"
       id="linearGradient1449"
       xlink:href="#red-background-gradient-2"
       inkscape:collect="always" />
    <linearGradient
       gradientTransform="translate(-4.0088136e-6)"
       gradientUnits="userSpaceOnUse"
       y2="57.993153"
       x2="57.787621"
       y1="0.34706753"
       x1="0.19832517"
       id="linearGradient1074-3"
       xlink:href="#red-background-gradient-2"
       inkscape:collect="always" />
  </defs>
  <sodipodi:namedview
     inkscape:document-rotation="0"
     fit-margin-bottom="0"
     fit-margin-right="0"
     fit-margin-left="0"
     fit-margin-top="0"
     inkscape:showpageshadow="false"
     showborder="true"
     borderlayer="true"
     inkscape:pagecheckerboard="true"
     inkscape:guide-bbox="true"
     inkscape:snap-grids="false"
     showguides="false"
     inkscape:current-layer="layer3"
     inkscape:window-maximized="0"
     inkscape:window-y="23"
     inkscape:window-x="0"
     inkscape:cy="34.828323"
     inkscape:cx="90.895658"
     inkscape:zoom="1.1852203"
     showgrid="false"
     id="namedview36"
     inkscape:window-height="855"
     inkscape:window-width="1251"
     inkscape:pageshadow="2"
     inkscape:pageopacity="0"
     guidetolerance="10"
     gridtolerance="10"
     objecttolerance="10"
     borderopacity="1"
     bordercolor="#666666"
     pagecolor="#ffffff"
     inkscape:snap-global="true"
     inkscape:object-nodes="true"
     inkscape:snap-others="true"
     inkscape:snap-bbox="false"
     inkscape:snap-to-guides="true"
     inkscape:object-paths="true"
     inkscape:snap-nodes="true"
     inkscape:snap-intersection-paths="true"
     inkscape:snap-smooth-nodes="true"
     inkscape:snap-midpoints="true"
     inkscape:snap-object-midpoints="true"
     inkscape:snap-center="true"
     inkscape:snap-page="true"
     inkscape:snap-text-baseline="true"
     inkscape:lockguides="false">
    <inkscape:grid
       type="xygrid"
       id="grid261"
       originx="-0.37041667"
       originy="0.58208406"
       dotted="true" />
    <sodipodi:guide
       position="28.673425,29.492491"
       orientation="0,-1"
       id="guide351" />
    <sodipodi:guide
       position="36.539015,37.236923"
       orientation="0.70710678,-0.70710678"
       id="guide353" />
    <sodipodi:guide
       position="28.708185,42.247463"
       orientation="1,0"
       id="guide355" />
    <sodipodi:guide
       id="guide2187"
       orientation="0,-1"
       position="20.576562,58.208533" />
    <sodipodi:guide
       id="guide2191"
       orientation="0,-1"
       position="21.055086,0.14754057" />
    <sodipodi:guide
       id="guide2297"
       orientation="0,-1"
       position="59.067325,0.14754057" />
    <sodipodi:guide
       id="guide2299"
       orientation="-0.70710678,-0.70710678"
       position="25.93504,-0.25949935" />
    <sodipodi:guide
       id="guide2303"
       orientation="0,-1"
       position="39.689239,6.2369487" />
    <sodipodi:guide
       id="guide2305"
       orientation="-0.70710678,-0.70710678"
       position="29.081757,11.160038" />
    <sodipodi:guide
       id="guide2309"
       orientation="-0.70710678,-0.70710678"
       position="38.819301,41.042032" />
    <sodipodi:guide
       id="guide2311"
       orientation="-0.70710678,-0.70710678"
       position="51.565559,41.662892" />
  </sodipodi:namedview>
  <title
     id="title10">KegCop Logo</title>
  <metadata
     id="metadata12">
    <rdf:RDF>
      <cc:Work
         rdf:about="">
        <dc:format>image/svg+xml</dc:format>
        <dc:type
           rdf:resource="http://purl.org/dc/dcmitype/StillImage" />
        <dc:title>KegCop Logo</dc:title>
        <cc:license
           rdf:resource="http://creativecommons.org/licenses/by-sa/4.0/" />
        <dc:creator>
          <cc:Agent>
            <dc:title>Chris Jones</dc:title>
          </cc:Agent>
        </dc:creator>
      </cc:Work>
      <cc:License
         rdf:about="http://creativecommons.org/licenses/by-sa/4.0/">
        <cc:permits
           rdf:resource="http://creativecommons.org/ns#Reproduction" />
        <cc:permits
           rdf:resource="http://creativecommons.org/ns#Distribution" />
        <cc:requires
           rdf:resource="http://creativecommons.org/ns#Notice" />
        <cc:requires
           rdf:resource="http://creativecommons.org/ns#Attribution" />
        <cc:permits
           rdf:resource="http://creativecommons.org/ns#DerivativeWorks" />
        <cc:requires
           rdf:resource="http://creativecommons.org/ns#ShareAlike" />
      </cc:License>
    </rdf:RDF>
  </metadata>
  <g
     style="display:none"
     inkscape:label="red-rec-background"
     id="layer2"
     inkscape:groupmode="layer">
    <path
       sodipodi:nodetypes="ccccccccc"
       style="display:inline;opacity:1;fill:url(#linearGradient1074-3);fill-opacity:1;stroke:none;stroke-width:0;stroke-miterlimit:4;stroke-dasharray:none;stroke-opacity:1;enable-background:new"
       inkscape:connector-curvature="0"
       id="red-background-9"
       d="M 58.380008,1.4119222e-6 C 58.20833,16.74956 58.208329,47.690488 58.380008,58.060994 c -13.819782,0 -49.8296895,0 -58.22050411,0 0,-13.439322 0,-49.6796725 0,-58.0609925880778 13.08378911,0.027918358078 47.55347811,-2.14994972e-6 58.22050411,0 z"
       transform="translate(4.3388134e-6)" />
  </g>
  <g
     style="display:none"
     inkscape:label="red-rec-round-background"
     id="layer1"
     inkscape:groupmode="layer">
    <path
       d="M 10.583326,-7.3962596e-7 H 47.712755 C 54.239576,-7.3962596e-7 58.208329,3.9687492 58.208329,10.495574 l 3e-6,18.220468 -3e-6,18.974446 c -10e-7,6.549094 -3.968753,10.517859 -10.686812,10.517889 l -36.812441,1.58e-4 C 3.9687456,58.208535 -4.3388135e-6,54.239582 -4.3388135e-6,47.594873 V 28.716042 10.583332 C -4.3388135e-6,3.9687503 3.9687456,-7.3962596e-7 10.583326,-7.3962596e-7 Z"
       id="red-background"
       inkscape:connector-curvature="0"
       style="display:inline;opacity:1;fill:url(#linearGradient1074);fill-opacity:1;stroke:none;stroke-width:0;stroke-miterlimit:4;stroke-dasharray:none;stroke-opacity:1;enable-background:new"
       sodipodi:nodetypes="ccccccccc"
       transform="translate(4.3388134e-6)" />
  </g>
  <g
     inkscape:label="white-outline"
     id="layer3"
     inkscape:groupmode="layer">
    <path
       sodipodi:nodetypes="ccccccccc"
       style="display:inline;opacity:1;fill:#ffffff;fill-opacity:0;stroke:#fcf9f9;stroke-width:0.05;stroke-miterlimit:4;stroke-dasharray:none;stroke-opacity:1;enable-background:new"
       inkscape:connector-curvature="0"
       id="white-line-outline"
       d="M 25.527998,58.060994 10.70908,58.208536 C 3.9687499,58.208536 0,54.239583 0,47.594874 V 28.716044 10.583333 C 0,3.9687513 3.9687499,2.8002522e-7 10.58333,2.8002522e-7 H 47.712759 C 54.23958,2.8002522e-7 58.208332,3.9687502 58.208333,10.495575 l 2e-6,12.692844" />
  </g>
  <g
     transform="translate(4.3388135e-6)"
     inkscape:groupmode="layer"
     id="layer1-top-most-layer"
     inkscape:label="kegcop-logo-long-shadow-exp"
     style="display:inline;opacity:1">
    <path
       style="opacity:0.2;fill:url(#linearGradient1419);fill-opacity:1;fill-rule:evenodd;stroke:none;stroke-width:0.258077px;stroke-linecap:butt;stroke-linejoin:miter;stroke-opacity:1"
       d="m 46.119295,11.391346 -32.4987,34.762417 12.054941,12.054771 21.845981,-1.57e-4 C 54.02903,58.060994 58.245601,54.630717 58.208329,46.72326 l 2e-6,-23.534841 z"
       id="shadow-of-white-circle"
       inkscape:connector-curvature="0" />
    <circle
       r="23.8125"
       cy="28.129236"
       cx="29.181816"
       id="white-circle"
       style="display:inline;opacity:1;fill:#fcf9f9;fill-opacity:1;stroke:none;stroke-width:0;stroke-opacity:1;enable-background:new" />
    <path
       style="opacity:0.0732484;fill:url(#linearGradient1427);fill-opacity:1;fill-rule:evenodd;stroke:none;stroke-width:0.262523px;stroke-linecap:butt;stroke-linejoin:miter;stroke-opacity:1"
       d="M 40.569358,18.905679 18.864469,36.831213 33.56642,51.534586 C 43.350703,49.064791 51.895816,41.097382 52.755569,31.102774 Z"
       id="shadow-of-red-shield"
       inkscape:connector-curvature="0" />
    <g
       transform="translate(157.04559,-27.512132)"
       id="red-shield"
       style="display:inline;fill:url(#linearGradient1372);fill-opacity:1;enable-background:new">
      <path
         d="m -133.11192,65.858789 c -1.14459,0.291088 -3.65111,-0.417723 -4.46034,-1.040702 -1.64131,-1.158028 -3.26053,-3.791172 -2.83571,-6.078601 -0.0866,-2.319064 2.0331,-4.376159 2.28721,-6.747134 0.0642,-1.7459 -0.31773,-3.742324 -2.08086,-5.487889 1.4178,-1.394911 3.05012,-3.025063 3.05012,-3.025063 1.6685,1.73167 2.5454,2.733864 3.921,2.689388 2.94917,0.19206 3.63459,-1.517846 4.89309,-2.695587 1.05461,1.167569 2.41627,2.948917 4.72917,2.743203 1.79428,-0.01226 2.78152,-1.162812 4.17302,-2.739178 l 2.98963,2.971037 c -1.61437,1.168223 -2.37932,3.64793 -2.29842,5.50733 0.46048,2.211534 2.45661,4.4642 2.3898,6.7736 0.43672,2.2781 -0.82853,4.943593 -2.69723,6.088893 -1.0475,0.69758 -3.21871,1.258081 -4.50901,1.018381 -0.5181,1.2429 -1.89267,1.457317 -2.89931,1.416081 -0.35384,0.264583 -0.8674,0.759082 -1.85209,1.730598 -1.09034,-1.013067 -1.32291,-1.466015 -1.85208,-1.730598 -0.76698,-0.002 -2.14101,0.247437 -2.94799,-1.393759 z"
         id="red-shield-path"
         inkscape:connector-curvature="0"
         style="fill:url(#linearGradient1449);fill-opacity:1;fill-rule:evenodd" />
    </g>
    <g
       transform="rotate(-90,-62.314107,-36.350365)"
       id="group-kegcop-text"
       style="display:inline;enable-background:new">
      <g
         id="text30-3-6-3"
         aria-label="KEGCOP"
         transform="rotate(90)"
         style="font-size:9.1359px;line-height:125%;font-family:sans-serif;font-variant-ligatures:normal;font-variant-caps:normal;font-variant-numeric:normal;font-feature-settings:normal;letter-spacing:0px;word-spacing:0px;fill:#ffffff;stroke-width:0.2284px">
        <path
           inkscape:connector-curvature="0"
           d="m 44.437782,129.5743 v -3.61112 h 0.729119 v 1.60357 l 1.473019,-1.60357 h 0.980371 l -1.35971,1.40651 1.433607,2.20461 h -0.943422 l -0.992687,-1.69472 -0.591178,0.6035 v 1.09122 z"
           style="font-weight:bold;font-size:5.04472px;font-family:Arial;font-variant-ligatures:normal;font-variant-caps:normal;font-variant-numeric:normal;font-feature-settings:normal;fill:#ffffff;fill-opacity:1;stroke-width:0.2284px"
           id="K" />
        <path
           inkscape:connector-curvature="0"
           d="m 48.073527,129.5743 v -3.61112 h 2.677545 v 0.61089 h -1.948425 v 0.80055 h 1.812946 v 0.60842 h -1.812946 v 0.98283 h 2.017395 v 0.60843 z"
           style="font-weight:bold;font-size:5.04472px;font-family:Arial;font-variant-ligatures:normal;font-variant-caps:normal;font-variant-numeric:normal;font-feature-settings:normal;fill:#ffffff;fill-opacity:1;stroke-width:0.2284px"
           id="E" />
        <path
           inkscape:connector-curvature="0"
           d="m 53.123174,128.24661 v -0.60842 h 1.571548 v 1.43853 q -0.229081,0.22169 -0.665075,0.39166 -0.433531,0.1675 -0.879377,0.1675 -0.566546,0 -0.987761,-0.23648 -0.421214,-0.23893 -0.633053,-0.67985 -0.211839,-0.44338 -0.211839,-0.96313 0,-0.56408 0.236472,-1.00254 0.236471,-0.43845 0.692171,-0.67246 0.347317,-0.17982 0.864598,-0.17982 0.672465,0 1.049341,0.28327 0.379339,0.28081 0.487722,0.77839 l -0.724193,0.13548 q -0.07636,-0.26603 -0.2882,-0.41875 -0.209375,-0.15519 -0.52467,-0.15519 -0.477869,0 -0.761142,0.30298 -0.28081,0.30298 -0.28081,0.89908 0,0.64291 0.285736,0.96559 0.285736,0.32023 0.748826,0.32023 0.229081,0 0.458163,-0.0887 0.231545,-0.0911 0.396582,-0.21923 v -0.45816 z"
           style="font-weight:bold;font-size:5.04472px;font-family:Arial;font-variant-ligatures:normal;font-variant-caps:normal;font-variant-numeric:normal;font-feature-settings:normal;fill:#ffffff;fill-opacity:1;stroke-width:0.2284px"
           id="G" />
        <path
           inkscape:connector-curvature="0"
           d="m 57.675246,128.24661 0.706951,0.22415 q -0.162574,0.59118 -0.541914,0.87938 -0.376876,0.28574 -0.958201,0.28574 -0.719267,0 -1.182356,-0.49019 -0.46309,-0.49265 -0.46309,-1.34493 0,-0.90155 0.465553,-1.39912 0.465553,-0.50004 1.224231,-0.50004 0.662613,0 1.076437,0.39166 0.246324,0.23154 0.369487,0.66507 l -0.72173,0.17243 q -0.06405,-0.28081 -0.268494,-0.44338 -0.201986,-0.16258 -0.492648,-0.16258 -0.401509,0 -0.652759,0.2882 -0.248788,0.2882 -0.248788,0.93357 0,0.68478 0.246324,0.97544 0.246324,0.29067 0.640443,0.29067 0.290663,0 0.500038,-0.18475 0.209376,-0.18474 0.300516,-0.58132 z"
           style="font-weight:bold;font-size:5.04472px;font-family:Arial;font-variant-ligatures:normal;font-variant-caps:normal;font-variant-numeric:normal;font-feature-settings:normal;fill:#ffffff;fill-opacity:1;stroke-width:0.2284px"
           id="C" />
        <path
           inkscape:connector-curvature="0"
           d="m 58.862529,127.79091 q 0,-0.55177 0.165037,-0.92618 0.123162,-0.27588 0.335001,-0.49511 0.214302,-0.21923 0.468016,-0.32515 0.337464,-0.14287 0.778384,-0.14287 0.798091,0 1.27596,0.49511 0.480332,0.49511 0.480332,1.37695 0,0.87446 -0.475406,1.36957 -0.475405,0.49265 -1.271033,0.49265 -0.80548,0 -1.280886,-0.49019 -0.475405,-0.49265 -0.475405,-1.35478 z m 0.751289,-0.0246 q 0,0.61334 0.283272,0.9311 0.283273,0.3153 0.719267,0.3153 0.435994,0 0.71434,-0.31284 0.28081,-0.31529 0.28081,-0.94342 0,-0.62073 -0.27342,-0.92618 -0.270957,-0.30544 -0.72173,-0.30544 -0.450773,0 -0.726656,0.31037 -0.275883,0.3079 -0.275883,0.93111 z"
           style="font-weight:bold;font-size:5.04472px;font-family:Arial;font-variant-ligatures:normal;font-variant-caps:normal;font-variant-numeric:normal;font-feature-settings:normal;fill:#ffffff;fill-opacity:1;stroke-width:0.2284px"
           id="O" />
        <path
           inkscape:connector-curvature="0"
           d="m 62.931804,129.5743 v -3.61112 h 1.17004 q 0.665076,0 0.867062,0.0542 0.310368,0.0813 0.519744,0.35471 0.209375,0.27096 0.209375,0.70202 0,0.33254 -0.120699,0.55916 -0.120698,0.22662 -0.307905,0.35717 -0.184743,0.12809 -0.376876,0.16996 -0.261104,0.0517 -0.756215,0.0517 h -0.475406 v 1.36218 z m 0.72912,-3.00023 v 1.0247 h 0.399045 q 0.431068,0 0.576399,-0.0567 0.145331,-0.0566 0.226618,-0.17735 0.08375,-0.1207 0.08375,-0.28081 0,-0.19706 -0.115772,-0.32515 -0.115772,-0.12809 -0.293126,-0.16011 -0.130552,-0.0246 -0.52467,-0.0246 z"
           style="font-weight:bold;font-size:5.04472px;font-family:Arial;font-variant-ligatures:normal;font-variant-caps:normal;font-variant-numeric:normal;font-feature-settings:normal;fill:#ffffff;fill-opacity:1;stroke-width:0.2284px"
           id="P" />
      </g>
    </g>
  </g>
</svg>
