<?xml version="1.0" encoding="UTF-8" standalone="no"?>
<!-- Created with Inkscape (http://www.inkscape.org/) -->

<svg
   xmlns:dc="http://purl.org/dc/elements/1.1/"
   xmlns:cc="http://creativecommons.org/ns#"
   xmlns:rdf="http://www.w3.org/1999/02/22-rdf-syntax-ns#"
   xmlns:svg="http://www.w3.org/2000/svg"
   xmlns="http://www.w3.org/2000/svg"
   xmlns:sodipodi="http://sodipodi.sourceforge.net/DTD/sodipodi-0.dtd"
   xmlns:inkscape="http://www.inkscape.org/namespaces/inkscape"
   width="219"
   height="219"
   enable-background="new"
   version="1.1"
   viewBox="0 0 57.943751 57.943748"
   id="svg721"
   sodipodi:docname="kegcop-logo.svg"
   inkscape:version="0.92.2 5c3e80d, 2017-08-06">
  <defs
     id="defs725" />
  <sodipodi:namedview
     pagecolor="#ffffff"
     bordercolor="#666666"
     borderopacity="1"
     objecttolerance="10"
     gridtolerance="10"
     guidetolerance="10"
     inkscape:pageopacity="0"
     inkscape:pageshadow="2"
     inkscape:window-width="1099"
     inkscape:window-height="671"
     id="namedview723"
     showgrid="false"
     inkscape:zoom="1.0776256"
     inkscape:cx="-10.207627"
     inkscape:cy="109.5"
     inkscape:window-x="0"
     inkscape:window-y="0"
     inkscape:window-maximized="0"
     inkscape:current-layer="svg721" />
  <title
     id="title697">KegCop Logo</title>
  <metadata
     id="metadata699">
    <rdf:RDF>
      <cc:Work
         rdf:about="">
        <dc:format>image/svg+xml</dc:format>
        <dc:type
           rdf:resource="http://purl.org/dc/dcmitype/StillImage" />
        <dc:title>KegCop Logo</dc:title>
        <cc:license
           rdf:resource="http://creativecommons.org/licenses/by-sa/4.0/" />
        <dc:creator>
          <cc:Agent>
            <dc:title>Chris Jones</dc:title>
          </cc:Agent>
        </dc:creator>
      </cc:Work>
      <cc:License
         rdf:about="http://creativecommons.org/licenses/by-sa/4.0/">
        <cc:permits
           rdf:resource="http://creativecommons.org/ns#Reproduction" />
        <cc:permits
           rdf:resource="http://creativecommons.org/ns#Distribution" />
        <cc:requires
           rdf:resource="http://creativecommons.org/ns#Notice" />
        <cc:requires
           rdf:resource="http://creativecommons.org/ns#Attribution" />
        <cc:permits
           rdf:resource="http://creativecommons.org/ns#DerivativeWorks" />
        <cc:requires
           rdf:resource="http://creativecommons.org/ns#ShareAlike" />
      </cc:License>
    </rdf:RDF>
  </metadata>
  <g
     transform="translate(157.96 -26.067)"
     id="g703">
    <path
       d="m-157.96 26.067h57.944v57.944h-57.944v-57.944z"
       fill="#de0000"
       id="path701" />
  </g>
  <g
     transform="translate(157.96 -26.067)"
     id="g707">
    <path
       d="m-128.19 33.168c-8.2055-0.14316-16.728 4.4368-19.92 12.222-3.2277 6.1119-2.6502 13.741 0.78627 19.636 3.71 6.7063 11.128 11.562 18.937 11.06 5.8796-0.09271 11.852-2.4361 15.667-7.0249 6.189-7.0947 7.6191-18.449 2.1189-26.349-2.508-3.587-5.8593-6.7201-10.055-8.1831-2.4042-0.89774-4.9704-1.3422-7.5345-1.3616zm-1.124 2.3952c5.9096-0.34587 11.813 2.4199 15.409 7.1046 4.7038 5.8021 5.8124 14.527 1.8715 21.021-2.4963 5.0071-7.5429 8.4674-13.031 9.3313-7.3738 1.3444-15.775-1.6844-19.542-8.4034-2.8363-4.1627-3.6928-9.5276-2.363-14.379 1.9081-7.6201 8.6423-14.246 16.702-14.65 0.31744-0.01759 0.6354-0.02593 0.95331-0.02503z"
       fill="#fff"
       id="path705" />
  </g>
  <g
     transform="translate(157.96 -26.067)"
     id="g711">
    <path
       d="m-130.8 67.011c-1.2724 0.14742-2.723-0.4107-3.2411-1.6536-1.9518 0.29385-3.7031-1.0007-5.0646-2.2462-1.4642-1.44-2.0899-3.8346-1.0189-5.6823 0.8865-1.8554 2.0569-3.7191 1.933-5.8616 0.0642-1.7459-0.0282-3.8984-1.6509-4.96 0.80934-0.9599 1.6187-1.9198 2.428-2.8797 1.5066 0.87726 2.9637 2.198 4.7998 2.2011 1.5916-0.18898 2.8816-1.2512 4.2272-2.0297 1.5874 0.74681 3.1775 1.9545 5.0234 1.7399 1.418-0.29681 2.5978-1.1992 3.8287-1.9112 0.80934 0.9599 1.6187 1.9198 2.428 2.8797-1.7396 1.1557-1.7175 3.4888-1.6366 5.3482-0.0612 2.5035 1.7553 4.4642 2.3898 6.7736 0.43672 2.2781-1.0839 4.4202-2.9526 5.5655-1.0475 0.69758-2.3117 1.3024-3.602 1.0627-0.5181 1.2429-1.9688 1.8011-3.2411 1.6536-0.74583 0.83139-1.4917 1.6628-2.2375 2.4942-0.80412-0.83139-1.6082-1.6628-2.4124-2.4942z"
       fill="#fff"
       fill-rule="evenodd"
       id="path709" />
  </g>
  <g
     transform="translate(157.96 -26.067)"
     id="g719">
    <text
       x="-136.6524"
       y="56.456806"
       fill="#ffffff"
       font-family="sans-serif"
       font-size="9.1359px"
       letter-spacing="0px"
       stroke-width=".2284px"
       word-spacing="0px"
       style="font-feature-settings:normal;font-variant-caps:normal;font-variant-ligatures:normal;font-variant-numeric:normal;line-height:125%"
       xml:space="preserve"
       id="text717"><tspan
         x="-136.6524"
         y="56.456806"
         stroke-width=".2284px"
         id="tspan715"><tspan
           x="-136.6524"
           y="56.456806"
           fill="#de0000"
           font-family="Arial"
           font-size="3.8806px"
           font-weight="bold"
           stroke-width=".2284px"
           style="font-feature-settings:normal;font-variant-caps:normal;font-variant-ligatures:normal;font-variant-numeric:normal"
           id="tspan713">KEGCOP</tspan></tspan></text>
  </g>
</svg>
